<svg width="217" height="123" fill="none" xmlns="http://www.w3.org/2000/svg"><g clip-path="url(#clip0)"><path d="M0 23.284v23.283h27.681v-5.75H6.513V25.87h8.685c6.513 0 8.793-.172 8.955-.747.109-.345.326-1.667.543-2.874l.326-2.127H6.513V5.749h21.168V0H0v23.284zm33.11-7.992c0 .173 2.007 3.335 4.504 7.014 2.497 3.68 4.722 7.071 4.94 7.474.216.402-1.52 3.564-4.777 8.45-2.877 4.198-5.21 7.82-5.21 7.992 0 .172 1.302.345 2.93.345h2.877l4.016-6.094c4.614-7.014 3.8-7.129 8.74 1.265l2.876 4.829h3.42c2.605 0 3.31-.172 3.039-.747a1652.24 1652.24 0 00-4.94-7.532c-2.496-3.794-4.722-7.128-4.884-7.588-.218-.575 5.699-10.233 9.227-15.063.38-.517-.217-.69-2.66-.69l-3.202.058-3.474 5.404c-1.9 2.99-3.636 5.462-3.8 5.462-.162 0-1.9-2.473-3.799-5.462l-3.528-5.462h-3.148c-1.737 0-3.148.173-3.148.345zm45.212 43.75l-2.334.23v49.384h5.428V83.648c0-13.74-.163-24.95-.38-24.893-.217.057-1.466.172-2.714.287zM0 85.315v23.341h7.762c11.723 0 17.531-1.667 22.362-6.381 5.59-5.462 7.544-14.545 5.373-24.72-1.031-4.945-3.42-8.854-6.893-11.269-4.45-3.162-7.11-3.737-18.4-4.024L0 61.974v23.341zm21.385-16.327c5.808 2.3 8.467 7.531 8.467 16.385 0 8.45-2.225 13.108-7.544 15.695-2.605 1.322-3.962 1.552-9.39 1.724l-6.405.23V67.838h5.97c4.669 0 6.568.23 8.902 1.15zm70.126-5.691c-.455.361-.824.83-1.078 1.369a4.069 4.069 0 00-.387 1.735c0 .603.132 1.197.387 1.736a3.836 3.836 0 001.078 1.368c1.629 1.38 2.334 1.495 4.18.575a3.897 3.897 0 001.63-1.482 4.227 4.227 0 00.619-2.179 4.233 4.233 0 00-.587-2.188 3.907 3.907 0 00-1.608-1.51c-1.9-.92-2.605-.804-4.234.576zM51.943 76.52c-3.202.977-7.164 5.173-8.521 9.025-1.629 4.484-1.357 13.51.434 17.247 2.117 4.255 7.164 7.014 12.81 7.014 2.225 0 8.304-1.955 9.932-3.162 1.194-.862 1.194-.977.326-2.874-.489-1.093-1.14-2.013-1.357-2.013-.965.309-1.894.733-2.768 1.265-3.203 1.782-8.902 1.84-11.073.115-2.008-1.61-3.257-3.967-3.745-7.014l-.38-2.414h20.788v-4.484c0-5.75-1.411-8.854-4.939-11.211-2.823-1.782-8.087-2.472-11.507-1.495zm8.359 5.288c1.303.863 2.66 3.852 2.66 5.807v1.495h-7.328c-4.668 0-7.327-.23-7.327-.575 0-1.265 1.574-4.484 2.768-5.692 2.334-2.3 6.622-2.76 9.227-1.035zM93.52 76.29l-2.334.23v32.136h5.427V92.272c0-9.026-.162-16.328-.38-16.27-.217.057-1.465.172-2.714.287zm50.152.23c-3.203.977-7.165 5.173-8.522 9.025-1.628 4.484-1.357 13.51.434 17.247 2.117 4.255 7.165 7.014 12.81 7.014 2.225 0 8.304-1.955 9.932-3.162 1.195-.862 1.195-.977.326-2.874-.488-1.093-1.14-2.013-1.357-2.013-.965.309-1.894.733-2.768 1.265-3.202 1.782-8.901 1.84-11.073.115-2.008-1.61-3.256-3.967-3.745-7.014l-.38-2.414h20.789v-4.484c0-5.75-1.412-8.854-4.94-11.211-2.822-1.782-8.087-2.472-11.506-1.495zm8.358 5.288c1.303.863 2.66 3.852 2.66 5.807v1.495h-7.328c-4.667 0-7.327-.23-7.327-.575 0-1.265 1.574-4.484 2.768-5.692 2.334-2.3 6.622-2.76 9.227-1.035zm17.749-5.518l-2.063.23v32.136h5.428V97.791c0-10.119.054-10.923 1.14-12.36a10.52 10.52 0 012.768-2.415c1.574-.863 6.405-1.208 7.436-.575.38.287 1.683-4.14 1.683-5.692 0-.115-.76-.345-1.683-.575-2.877-.69-6.296.23-8.901 2.357l-2.443 1.955v-2.3c0-1.494-.217-2.242-.651-2.184-.434.057-1.629.172-2.714.287zm-66.761 3.219c.489 1.38 3.257 8.508 6.079 15.81l5.156 13.395 2.66-.173 2.714-.172 5.862-15.235c3.202-8.394 5.807-15.407 5.862-15.695.054-.287-1.357-.402-2.986-.402-1.628 0-2.985.057-2.985.172 0 .115-7.382 22.421-7.924 23.974-.326.747-.38.747-.597 0-.163-.46-2.117-6.094-4.342-12.533l-4.071-11.613h-6.405l.977 2.472zm85.758.23c7.382 20.524 10.692 28.917 11.29 28.917.977 0 .977 0-.543 3.565-1.846 4.426-3.04 5.346-7.002 5.346h-3.257l-.705 2.127-.706 2.127 2.008.633c5.591 1.61 10.15-.345 13.298-5.749.652-1.093 4.017-10.406 7.545-20.697L217 77.324l-2.714-.172c-1.845-.115-2.931.057-3.202.575-.272.402-2.117 5.921-4.071 12.245-1.954 6.324-3.799 11.67-3.962 11.958-.163.287-2.334-5.29-4.722-12.246l-4.288-12.647h-6.242l.977 2.702z" fill="#000"/><path d="M217 19.115H94.334v14.948H217V19.115z" fill="#FFF475"/></g><defs><clipPath id="clip0"><path fill="#fff" d="M0 0h217v123H0z"/></clipPath></defs></svg>